<svg width="640" height="520" viewBox="0 0 640 520" fill="none" xmlns="http://www.w3.org/2000/svg">
  <rect width="640" height="520" rx="28" fill="#FFF4CC"/>
  <rect x="64" y="72" width="512" height="336" rx="24" fill="white"/>
  <rect x="96" y="116" width="192" height="140" rx="20" fill="#FFD956" opacity="0.22"/>
  <rect x="320" y="116" width="192" height="140" rx="20" fill="#4DA6FF" opacity="0.18"/>
  <rect x="96" y="276" width="416" height="96" rx="18" fill="#FFF1B0"/>
  <rect x="112" y="292" width="152" height="24" rx="12" fill="#FFEAA4"/>
  <rect x="112" y="328" width="104" height="16" rx="8" fill="#FFF7D1"/>
  <rect x="272" y="292" width="88" height="24" rx="12" fill="#FFEAA4"/>
  <rect x="272" y="328" width="120" height="16" rx="8" fill="#FFF7D1"/>
  <rect x="416" y="292" width="80" height="24" rx="12" fill="#FFEAA4"/>
  <rect x="416" y="328" width="72" height="16" rx="8" fill="#FFF7D1"/>
  <path d="M188 176h8c18 0 32.5 14.5 32.5 32.5v8c0 18-14.5 32.5-32.5 32.5h-8c-18 0-32.5-14.5-32.5-32.5v-8c0-18 14.5-32.5 32.5-32.5z" fill="#FFD956"/>
  <path d="M408 176h8c18 0 32.5 14.5 32.5 32.5v8c0 18-14.5 32.5-32.5 32.5h-8c-18 0-32.5-14.5-32.5-32.5v-8c0-18 14.5-32.5 32.5-32.5z" fill="#4DA6FF"/>
  <circle cx="192" cy="200" r="18" fill="white"/>
  <circle cx="412" cy="200" r="18" fill="white"/>
  <path d="M192 222c12 0 22 10 22 22v6h-44v-6c0-12 10-22 22-22z" fill="white"/>
  <path d="M412 222c12 0 22 10 22 22v6h-44v-6c0-12 10-22 22-22z" fill="white"/>
  <rect x="128" y="384" width="192" height="32" rx="16" fill="#FFD956"/>
  <rect x="336" y="384" width="152" height="32" rx="16" fill="#4DA6FF"/>
  <rect x="160" y="96" width="320" height="12" rx="6" fill="#E2E8F0"/>
  <rect x="352" y="420" width="128" height="12" rx="6" fill="#E2E8F0"/>
  <rect x="144" y="420" width="176" height="12" rx="6" fill="#E2E8F0"/>
  <rect x="64" y="432" width="512" height="16" rx="8" fill="#FFEAA4"/>
  <path d="M512 452c0 22.091-17.909 40-40 40H168c-22.091 0-40-17.909-40-40" stroke="#FFD956" stroke-width="4" stroke-linecap="round"/>
  <path d="M222 432c0 24-18 44-40 44s-40-20-40-44 18-44 40-44 40 20 40 44z" fill="#FFD956" opacity="0.22"/>
  <path d="M498 432c0 24-18 44-40 44s-40-20-40-44 18-44 40-44 40 20 40 44z" fill="#4DA6FF" opacity="0.16"/>
</svg>
