<svg width="1024" height="1024" viewBox="0 0 1024 1024" xmlns="http://www.w3.org/2000/svg">
  <rect width="1024" height="1024" fill="#FFC20E" rx="220"/>
  <g transform="translate(192 200)">
    <path d="M320 0C214.8 0 120.3 27.8 0 62.5v330.8c0 107.8 75.1 209.9 192 272.5 76.1 41.7 115.9 61.2 128 65.6 12.1-4.4 51.9-23.9 128-65.6 116.9-62.6 192-164.7 192-272.5V62.5C679.7 27.8 585.2 0 480 0H320Z" fill="#122040"/>
    <path d="M320 64C234.5 64 155.9 87 64 112v281.3c0 87.8 61.7 172.8 156 224.7 56.1 30.7 85.9 45.4 100 51.3 14.1-5.9 43.9-20.6 100-51.3 94.3-51.9 156-136.9 156-224.7V112C484.1 87 405.5 64 320 64Z" fill="#FFC20E"/>
    <path d="M320 156c-69.5 0-138.7 15.7-208 47v196.1c0 61.2 42.7 121.8 107 156.4 36.5 19.5 58.4 28.8 70.5 33.4 12.1-4.6 34-13.9 70.5-33.4 64.3-34.6 107-95.2 107-156.4V203c-69.3-31.3-138.5-47-208-47Z" fill="#122040"/>
    <rect x="280" y="236" width="80" height="240" rx="32" fill="#FFC20E"/>
  </g>
</svg>
